<mxfile host="drawio-plugin" modified="2022-11-12T07:17:16.264Z" agent="5.0 (Windows NT 6.2; Win64; x64) AppleWebKit/537.36 (KHTML, like Gecko) Chrome/81.0.4044.113 Safari/537.36" etag="TngG0zUcDhfDTbvEe5yG" version="13.7.9" type="embed"><diagram id="NU1ITVGtS6ywvsQitE56" name="第 1 页"><mxGraphModel dx="1294" dy="864" grid="1" gridSize="10" guides="1" tooltips="1" connect="1" arrows="1" fold="1" page="1" pageScale="1" pageWidth="1169" pageHeight="827" math="0" shadow="0"><root><mxCell id="0"/><mxCell id="1" parent="0"/><mxCell id="2" value="&lt;font style=&quot;font-size: 19px&quot;&gt;设计架构图&lt;/font&gt;" style="rounded=0;whiteSpace=wrap;html=1;" vertex="1" parent="1"><mxGeometry x="240" y="10" width="640" height="60" as="geometry"/></mxCell></root></mxGraphModel></diagram></mxfile>